<?xml version="1.0" encoding="UTF-8"?>
<svg width="120px" height="120px" viewBox="0 0 120 120" version="1.1" xmlns="http://www.w3.org/2000/svg" xmlns:xlink="http://www.w3.org/1999/xlink">
    <!-- Generator: Sketch 44.1 (41455) - http://www.bohemiancoding.com/sketch -->
    <title>icons/pairing</title>
    <desc>Created with Sketch.</desc>
    <defs></defs>
    <g id="Symbols" stroke="none" stroke-width="1" fill="none" fill-rule="evenodd">
        <g id="icons/pairing" stroke="#0077C0" fill-rule="nonzero" stroke-width="5" fill="#FFFFFF">
            <path d="M105.952252,79.1690603 C105.199769,76.9169895 103.835781,74.6453235 101.82404,73.3233359 C97.9531579,70.7605015 93.443101,69.3933896 89.0821848,67.9298196 C88.0301749,67.5622022 86.9612862,67.1614661 85.9998952,66.5912727 C85.1415746,66.0826248 85.1309619,63.0962851 85.4501036,62.6519427 C88.6123592,58.3372677 90.7100151,51.2956827 90.7100151,45.5218535 C90.7100151,36.5110865 84.6054701,34 78.3097355,34 C72.0127558,34 65.9093176,36.5073607 65.9093176,45.5181276 C65.9093176,51.4985347 68.1581896,58.8346 71.5109525,63.0962851 C71.9122907,63.5799671 70.8579427,66.0439863 70.0001755,66.5524962 C69.0376776,67.1228276 68.9689274,67.4847873 67.9167791,67.8524047 C63.5558629,69.3158367 59.0459443,70.6063616 55.1760307,73.169196 C53.1631831,74.4911837 51.7998867,76.9169895 51.0479569,79.1690603 C50.2736145,81.5064117 49.9569323,93.2617679 50.0046629,95.607675 L78.4988594,95.607675 L106.995269,95.607675 C107.043415,93.2619059 106.726041,81.5065497 105.952252,79.1690603 Z" id="Shape-Copy-2" transform="translate(78.500000, 64.803837) scale(-1, 1) translate(-78.500000, -64.803837) "></path>
            <path d="M66.9522522,85.1690603 C66.199769,82.9169895 64.8357807,80.6453235 62.82404,79.3233359 C58.9531579,76.7605015 54.443101,75.3933896 50.0821848,73.9298196 C49.0301749,73.5622022 47.9612862,73.1614661 46.9998952,72.5912727 C46.1415746,72.0826248 46.1309619,69.0962851 46.4501036,68.6519427 C49.6123592,64.3372677 51.7100151,57.2956827 51.7100151,51.5218535 C51.7100151,42.5110865 45.6054701,40 39.3097355,40 C33.0127558,40 26.9093176,42.5073607 26.9093176,51.5181276 C26.9093176,57.4985347 29.1581896,64.8346 32.5109525,69.0962851 C32.9122907,69.5799671 31.8579427,72.0439863 31.0001755,72.5524962 C30.0376776,73.1228276 29.9689274,73.4847873 28.9167791,73.8524047 C24.5558629,75.3158367 20.0459443,76.6063616 16.1760307,79.169196 C14.1631831,80.4911837 12.7998867,82.9169895 12.0479569,85.1690603 C11.2736145,87.5064117 10.9569323,93.401399 11.0046629,95.747306 L39.4988594,95.747306 L67.9952694,95.747306 C68.043415,93.401537 67.7260412,87.5065497 66.9522522,85.1690603 Z" id="Shape-Copy" transform="translate(39.500000, 67.873653) scale(-1, 1) translate(-39.500000, -67.873653) "></path>
        </g>
    </g>
</svg>