<?xml version="1.0" encoding="UTF-8"?>
<svg width="120px" height="120px" viewBox="0 0 120 120" version="1.1" xmlns="http://www.w3.org/2000/svg" xmlns:xlink="http://www.w3.org/1999/xlink">
    <!-- Generator: Sketch 44.1 (41455) - http://www.bohemiancoding.com/sketch -->
    <title>icons/tdd</title>
    <desc>Created with Sketch.</desc>
    <defs></defs>
    <g id="Symbols" stroke="none" stroke-width="1" fill="none" fill-rule="evenodd">
        <g id="icons/tdd">
            <g id="Group-4" transform="translate(14.000000, 35.000000)">
                <g id="Group-3">
                    <ellipse id="Oval-2" stroke="#0077C0" stroke-width="5" cx="24.7443601" cy="24.5601589" rx="24.7443601" ry="24.5601589"></ellipse>
                    <path d="M37.4583333,33.5534036 C35.5026298,35.3021616 34.2603803,36.4172813 32.8712432,37.6595456 C30.2902181,34.9207281 27.6126669,32.0776937 24.8637702,29.1658762 C21.6784075,32.4028501 18.9358061,35.1916917 16.0861865,38.0889189 C14.5900313,36.4673054 13.4149304,35.1937761 11.9019881,33.5534036 C14.6634751,31.068875 17.5760465,28.4467803 20.8516401,25.4995291 C17.536177,22.5314345 14.6110152,19.9135084 11.625,17.2393053 C13.2512557,15.5947641 14.4746196,14.3587528 15.9959555,12.8205128 C18.818296,15.7761014 21.5357167,18.6212201 24.4944528,21.7185435 C27.331482,18.6879188 30.0216236,15.8136194 32.7138636,12.9351513 C34.2540851,14.4150299 35.5089249,15.6197761 36.9610139,17.0162813 C34.0295569,19.7530146 31.2114132,22.3813623 28.3575969,25.0472281 C31.4800077,27.9652986 34.3317257,30.6311644 37.4583333,33.5534036" id="Fill-12-Copy" fill="#0077C0"></path>
                </g>
                <g id="Group-2" transform="translate(42.625000, 0.000000)">
                    <ellipse id="Oval-2-Copy" stroke="#0077C0" stroke-width="5" fill="#FFFFFF" cx="24.7443601" cy="24.5601589" rx="24.7443601" ry="24.5601589"></ellipse>
                    <path d="M20.73978,28.328532 C26.1957354,22.8906817 31.2121605,17.891467 36.3008088,12.8205128 C37.7163857,14.2102084 38.940055,15.4113318 40.1678514,16.6165545 C33.7007695,22.9562721 27.3430544,29.1914551 21.1401035,35.2749603 C17.2111552,31.374384 13.1418874,27.3323785 9.04166667,23.2616772 C10.0280308,22.2757722 11.2269378,21.0787482 12.5352115,19.7730903 C15.195093,22.5463324 17.8652921,25.329823 20.73978,28.328532" id="Fill-10" fill="#0077C0"></path>
                </g>
            </g>
        </g>
    </g>
</svg>